<?xml version="1.0" encoding="utf-8"?>
<!-- Generator: Adobe Illustrator 18.1.1, SVG Export Plug-In . SVG Version: 6.00 Build 0)  -->
<svg version="1.1" id="Layer_1" xmlns="http://www.w3.org/2000/svg" xmlns:xlink="http://www.w3.org/1999/xlink" x="0px" y="0px"
	 viewBox="0 0 792 612" enable-background="new 0 0 792 612" xml:space="preserve">
<path fill="#FFF0BB" d="M557.5,506.1c-5.7,0-148.7,0-211.6-185.8c-48.6-145.8-163-143-174.4-143H0v-65.8h168.7
	c60,0,183,25.7,243,185.8c51.5,140.1,145.8,140.1,148.7,140.1l0,0h128.7v68.6H557.5z"/>
<g>
	<path fill="#FFF0BB" d="M288.8,388.9c-45.7,48.6-91.5,51.5-94.4,51.5H0v65.8h191.6l0,0c5.7,0,68.6,0,128.7-57.2
		C311.7,431.8,300.2,411.8,288.8,388.9z"/>
	<path fill="#FFF0BB" d="M583.3,111.6c-37.2,0-97.2,8.6-151.5,54.3c11.4,17.2,25.7,37.2,34.3,57.2c48.6-48.6,108.6-45.7,111.5-45.7
		h111.5v-65.8H583.3z"/>
</g>
<polyline fill="#FFF0BB" points="689.1,57.2 689.1,223.1 792,140.2 "/>
<polyline fill="#FFF0BB" points="689.1,388.9 689.1,554.8 792,471.8 "/>
</svg>
